<svg xmlns="http://www.w3.org/2000/svg" xmlns:xlink="http://www.w3.org/1999/xlink" width="670" height="754.72"><rect width="670" height="754.72" rx="5" ry="5" class="a"/><svg y="0%" x="0%"><circle cx="20" cy="20" r="6" fill="#ff5f58"/><circle cx="40" cy="20" r="6" fill="#ffbd2e"/><circle cx="60" cy="20" r="6" fill="#18c132"/></svg><svg height="694.72" viewBox="0 0 63 69.472" width="630" x="15" xmlns="http://www.w3.org/2000/svg" xmlns:xlink="http://www.w3.org/1999/xlink" y="50"><style>@keyframes w{0%{transform:translateX(0)}.46%{transform:translateX(-63px)}1.49%{transform:translateX(-189px)}1.56%{transform:translateX(-378px)}2.97%{transform:translateX(-441px)}3.46%{transform:translateX(-504px)}5.2%{transform:translateX(-567px)}5.21%{transform:translateX(-693px)}5.23%{transform:translateX(-882px)}5.34%{transform:translateX(-1008px)}5.35%{transform:translateX(-1071px)}8.94%{transform:translateX(-1134px)}9.35%{transform:translateX(-1197px)}9.97%{transform:translateX(-1260px)}10.38%{transform:translateX(-1323px)}10.82%{transform:translateX(-1386px)}11.2%{transform:translateX(-1449px)}11.66%{transform:translateX(-1512px)}12.04%{transform:translateX(-1575px)}12.25%{transform:translateX(-1638px)}19.27%{transform:translateX(-1764px)}19.28%{transform:translateX(-1827px)}19.29%{transform:translateX(-1890px)}19.38%{transform:translateX(-2016px)}19.4%{transform:translateX(-2205px)}19.48%{transform:translateX(-2394px)}33.08%{transform:translateX(-2457px)}33.6%{transform:translateX(-2520px)}36.41%{transform:translateX(-2583px)}36.42%{transform:translateX(-2772px)}36.55%{transform:translateX(-2961px)}39.97%{transform:translateX(-3024px)}40.78%{transform:translateX(-3087px)}41.32%{transform:translateX(-3150px)}42.02%{transform:translateX(-3213px)}43.9%{transform:translateX(-3276px)}45.26%{transform:translateX(-3339px)}46.02%{transform:translateX(-3402px)}46.87%{transform:translateX(-3465px)}47.84%{transform:translateX(-3528px)}48.46%{transform:translateX(-3591px)}48.9%{transform:translateX(-3654px)}49.49%{transform:translateX(-3717px)}49.87%{transform:translateX(-3780px)}50.19%{transform:translateX(-3843px)}51%{transform:translateX(-3906px)}51.69%{transform:translateX(-3969px)}52.02%{transform:translateX(-4032px)}52.63%{transform:translateX(-4095px)}52.97%{transform:translateX(-4158px)}53.3%{transform:translateX(-4221px)}56.78%{transform:translateX(-4284px)}56.8%{transform:translateX(-4347px)}56.81%{transform:translateX(-4410px)}57.74%{transform:translateX(-4536px)}57.83%{transform:translateX(-4662px)}57.84%{transform:translateX(-4725px)}60.97%{transform:translateX(-4788px)}61.59%{transform:translateX(-4851px)}62.52%{transform:translateX(-4914px)}63.11%{transform:translateX(-4977px)}63.45%{transform:translateX(-5040px)}63.96%{transform:translateX(-5103px)}73.04%{transform:translateX(-5229px)}73.05%{transform:translateX(-5355px)}73.07%{transform:translateX(-5733px)}73.17%{transform:translateX(-5922px)}to{transform:translateX(-5985px)}}.a{fill:#282d35}.f{fill:#66c2cd}.f,.g{font-weight:700}.g,.h{fill:#a8cc8c}.i,.j{fill:#b9c0cb}.j{text-decoration:underline}.k{fill:#d290e4}.l{fill:#e88388}.o{fill:#d290e3}.p,.q{fill:#b9c0cb;font-weight:700}.q{fill:#dbab79}.r{fill:#71bef2}.s{fill:#e88388;font-weight:700}</style><g font-size="1.67" font-family="Monaco,Consolas,Menlo,'Bitstream Vera Sans Mono','Powerline Symbols',monospace"><defs><symbol id="1"><text y="1.67" class="f">~/example</text></symbol><symbol id="2"><text y="1.67" class="g">➜</text></symbol><symbol id="3"><text y="1.67" class="g">➜</text><text x="2.004" y="1.67" class="h">ls</text></symbol><symbol id="4"><text y="1.67" class="i">main.c</text><text x="8.016" y="1.67" class="i">narwhal.c</text><text x="19.038" y="1.67" class="i">narwhal.h</text></symbol><symbol id="5"><text y="1.67" class="g">➜</text><text x="2.004" y="1.67" class="h">vim</text></symbol><symbol id="6"><text y="1.67" class="g">➜</text><text x="2.004" y="1.67" class="h">vim</text><text x="6.012" y="1.67" class="j">main.c</text></symbol><symbol id="7"><text y="1.67" class="i">&quot;main.c&quot;</text><text x="9.018" y="1.67" class="i">6L,</text><text x="13.026" y="1.67" class="i">77C</text></symbol><symbol id="8"><text y="1.67" class="k">#include</text><text x="9.018" y="1.67" class="l">&quot;narwhal.h&quot;</text></symbol><symbol id="9"><text y="1.67" class="i">TEST(example)</text></symbol><symbol id="10"><text y="1.67" class="i">{</text></symbol><symbol id="11"><text x="4.008" y="1.67" class="i">ASSERT_EQ(</text><text x="14.028" y="1.67" class="l">&quot;actual&quot;</text><text x="22.044" y="1.67" class="i">,</text><text x="24.048" y="1.67" class="l">&quot;expected&quot;</text><text x="34.068" y="1.67" class="i">);</text></symbol><symbol id="12"><text y="1.67" class="i">}</text></symbol><symbol id="13"><text y="1.67" fill="#73bef3">~</text></symbol><symbol id="14"><text y="1.67" class="i">&quot;main.c&quot;</text><text x="9.018" y="1.67" class="i">6L,</text><text x="13.026" y="1.67" class="i">77C</text><text x="45.09" y="1.67" class="i">5,36</text><text x="58.116" y="1.67" class="i">Tout</text></symbol><symbol id="15"><text y="1.67" fill="#5fd7ff">#include</text><text x="9.018" y="1.67" class="o">&quot;narwhal.h&quot;</text></symbol><symbol id="16"><text x="4.008" y="1.67" class="i">ASSERT_EQ(</text><text x="14.028" y="1.67" class="o">&quot;actual&quot;</text><text x="22.044" y="1.67" class="i">,</text><text x="24.048" y="1.67" class="o">&quot;expected&quot;</text><text x="34.068" y="1.67" class="i">);</text></symbol><symbol id="17"><text y="1.67" class="i">:q</text></symbol><symbol id="18"><text y="1.67" class="f">~/example</text><text x="10.02" y="1.67" class="p">took</text><text x="15.03" y="1.67" class="q">4s</text></symbol><symbol id="19"><text y="1.67" class="g">➜</text><text x="2.004" y="1.67" class="h">gcc</text></symbol><symbol id="20"><text y="1.67" class="g">➜</text><text x="2.004" y="1.67" class="h">gcc</text><text x="6.012" y="1.67" class="r">*.c</text></symbol><symbol id="21"><text y="1.67" class="g">➜</text><text x="2.004" y="1.67" class="h">gcc</text><text x="6.012" y="1.67" class="r">*.c</text><text x="10.02" y="1.67" class="i">-o</text></symbol><symbol id="22"><text y="1.67" class="g">➜</text><text x="2.004" y="1.67" class="h">gcc</text><text x="6.012" y="1.67" class="r">*.c</text><text x="10.02" y="1.67" class="i">-o</text><text x="13.026" y="1.67" class="i">run_tests</text></symbol><symbol id="23"><text y="1.67" class="g">➜</text><text x="2.004" y="1.67" class="h">./run_tests</text></symbol><symbol id="24"><text y="1.67" class="i">Running</text><text x="8.016" y="1.67" class="i">tests...</text></symbol><symbol id="25"><text x="5.01" y="1.67" class="k">1</text><text x="7.014" y="1.67" class="i">-</text><text x="9.018" y="1.67" class="k">1</text><text x="11.022" y="1.67" class="i">|</text><text x="14.028" y="1.67" class="s">F</text></symbol><symbol id="26"><text y="1.67" class="i">Test</text><text x="5.01" y="1.67" class="i">results:</text></symbol><symbol id="27"><text x="4.008" y="1.67" class="s">FAIL</text><text x="9.018" y="1.67" class="p">example</text><text x="17.034" y="1.67" class="i">(</text><text x="18.036" y="1.67" class="q">0.10ms</text><text x="24.048" y="1.67" class="i">)</text></symbol><symbol id="28"><text y="1.67" class="i">Failing</text><text x="8.016" y="1.67" class="i">tests:</text></symbol><symbol id="29"><text x="4.008" y="1.67" class="p">example</text><text x="12.024" y="1.67" class="i">failed:</text></symbol><symbol id="30"><text x="8.016" y="1.67" class="i">Location:</text><text x="18.036" y="1.67" class="h">main.c:5</text></symbol><symbol id="31"><text x="8.016" y="1.67" class="i">Time:</text><text x="18.036" y="1.67" class="q">0.10ms</text></symbol><symbol id="32"><text x="8.016" y="1.67" class="i">Error:</text><text x="18.036" y="1.67" class="s">Assertion</text><text x="28.056" y="1.67" class="f">&quot;actual&quot;</text><text x="37.074" y="1.67" class="f">==</text><text x="40.08" y="1.67" class="f">&quot;expected&quot;</text><text x="51.102" y="1.67" class="s">failed.</text></symbol><symbol id="33"><text x="18.036" y="1.67" class="s">See</text><text x="22.044" y="1.67" class="s">diff</text><text x="27.054" y="1.67" class="s">for</text><text x="31.062" y="1.67" class="s">details.</text></symbol><symbol id="34"><text x="9.018" y="1.67" class="k">3</text><text x="11.022" y="1.67" class="i">|</text><text x="14.028" y="1.67" class="i">TEST(example)</text></symbol><symbol id="35"><text x="9.018" y="1.67" class="k">4</text><text x="11.022" y="1.67" class="i">|</text><text x="14.028" y="1.67" class="i">{</text></symbol><symbol id="36"><text x="7.014" y="1.67" class="i">&gt;</text><text x="9.018" y="1.67" fill="#d290e4" font-weight="700">5</text><text x="11.022" y="1.67" class="i">|</text><text x="18.036" y="1.67" class="f">ASSERT_EQ(&quot;actual&quot;,</text><text x="38.076" y="1.67" class="f">&quot;expected&quot;);</text></symbol><symbol id="37"><text x="9.018" y="1.67" class="k">6</text><text x="11.022" y="1.67" class="i">|</text><text x="14.028" y="1.67" class="i">}</text></symbol><symbol id="38"><text x="8.016" y="1.67" class="i">Diff:</text></symbol><symbol id="39"><text x="7.014" y="1.67" class="l">-</text><text x="9.018" y="1.67" class="s">1</text><text x="11.022" y="1.67" class="l">|</text><text x="14.028" y="1.67" class="s">expe</text><text x="18.036" y="1.67" class="i">ct</text><text x="20.04" y="1.67" class="s">ed</text></symbol><symbol id="40"><text x="7.014" y="1.67" class="h">+</text><text x="9.018" y="1.67" class="g">1</text><text x="11.022" y="1.67" class="h">|</text><text x="14.028" y="1.67" class="g">a</text><text x="15.03" y="1.67" class="i">ct</text><text x="17.034" y="1.67" class="g">ual</text></symbol><symbol id="41"><text y="1.67" class="i">Tests:</text><text x="7.014" y="1.67" class="s">1</text><text x="9.018" y="1.67" class="s">failed</text><text x="15.03" y="1.67" class="i">,</text><text x="17.034" y="1.67" class="g">0</text><text x="19.038" y="1.67" class="g">passed</text><text x="25.05" y="1.67" class="i">,</text><text x="27.054" y="1.67" class="i">1</text><text x="29.058" y="1.67" class="i">total</text></symbol><symbol id="42"><text y="1.67" class="i">Time:</text><text x="7.014" y="1.67" class="q">0.84ms</text></symbol><symbol id="43"><text y="1.67" class="s">➜</text></symbol><symbol id="a"><path fill="transparent" d="M0 0h63v32H0z"/></symbol><symbol id="b"><path fill="#6f7683" d="M0 0h1.102v2.171H0z"/></symbol></defs><path class="a" d="M0 0h63v69.472H0z"/><g style="animation-duration:27.92804s;animation-iteration-count:infinite;animation-name:w;animation-timing-function:steps(1,end)"><svg width="6048"><svg><use xlink:href="#a"/><use xlink:href="#b" x="-.004"/></svg><svg x="63"><use xlink:href="#a"/><use xlink:href="#b" x="-.004"/></svg><svg x="126"><use xlink:href="#a"/><use xlink:href="#b" x="-.004"/></svg><svg x="189"><use xlink:href="#a"/><use xlink:href="#b" x="-.004"/></svg><svg x="252"><use xlink:href="#a"/><use xlink:href="#b" x="1.996" y="4.317"/><use xlink:href="#1" y="2.171"/><use xlink:href="#2" y="4.342"/></svg><svg x="315"><use xlink:href="#a"/><use xlink:href="#b" x="1.996" y="4.317"/><use xlink:href="#1" y="2.171"/><use xlink:href="#2" y="4.342"/></svg><svg x="378"><use xlink:href="#a"/><use xlink:href="#b" x="1.996" y="4.317"/><use xlink:href="#1" y="2.171"/><use xlink:href="#2" y="4.342"/></svg><svg x="441"><use xlink:href="#a"/><use xlink:href="#b" x="2.996" y="4.317"/><use xlink:href="#1" y="2.171"/><text y="6.012" class="g">➜</text><text x="2.004" y="6.012" class="h">l</text></svg><svg x="504"><use xlink:href="#a"/><use xlink:href="#b" x="3.996" y="4.317"/><use xlink:href="#1" y="2.171"/><use xlink:href="#3" y="4.342"/></svg><svg x="567"><use xlink:href="#a"/><use xlink:href="#b" x="3.996" y="4.317"/><use xlink:href="#1" y="2.171"/><use xlink:href="#3" y="4.342"/></svg><svg x="630"><use xlink:href="#a"/><use xlink:href="#b" x="-.004" y="6.488"/><use xlink:href="#1" y="2.171"/><use xlink:href="#3" y="4.342"/></svg><svg x="693"><use xlink:href="#a"/><use xlink:href="#b" x="-.004" y="6.488"/><use xlink:href="#1" y="2.171"/><use xlink:href="#3" y="4.342"/></svg><svg x="756"><use xlink:href="#a"/><use xlink:href="#b" x="-.004" y="8.659"/><use xlink:href="#1" y="2.171"/><use xlink:href="#3" y="4.342"/><use xlink:href="#4" y="6.513"/></svg><svg x="819"><use xlink:href="#a"/><use xlink:href="#b" x="-.004" y="8.659"/><use xlink:href="#1" y="2.171"/><use xlink:href="#3" y="4.342"/><use xlink:href="#4" y="6.513"/></svg><svg x="882"><use xlink:href="#a"/><use xlink:href="#b" x="-.004" y="8.659"/><use xlink:href="#1" y="2.171"/><use xlink:href="#3" y="4.342"/><use xlink:href="#4" y="6.513"/></svg><svg x="945"><use xlink:href="#a"/><use xlink:href="#b" x="1.996" y="13.001"/><use xlink:href="#1" y="2.171"/><use xlink:href="#3" y="4.342"/><use xlink:href="#4" y="6.513"/><use xlink:href="#1" y="10.855"/><use xlink:href="#2" y="13.026"/></svg><svg x="1008"><use xlink:href="#a"/><use xlink:href="#b" x="1.996" y="13.001"/><use xlink:href="#1" y="2.171"/><use xlink:href="#3" y="4.342"/><use xlink:href="#4" y="6.513"/><use xlink:href="#1" y="10.855"/><use xlink:href="#2" y="13.026"/></svg><svg x="1071"><use xlink:href="#a"/><use xlink:href="#b" x="1.996" y="13.001"/><use xlink:href="#1" y="2.171"/><use xlink:href="#3" y="4.342"/><use xlink:href="#4" y="6.513"/><use xlink:href="#1" y="10.855"/><use xlink:href="#2" y="13.026"/></svg><svg x="1134"><use xlink:href="#a"/><use xlink:href="#b" x="2.996" y="13.001"/><use xlink:href="#1" y="2.171"/><use xlink:href="#3" y="4.342"/><use xlink:href="#4" y="6.513"/><use xlink:href="#1" y="10.855"/><text y="14.696" class="g">➜</text><text x="2.004" y="14.696" class="s">v</text></svg><svg x="1197"><use xlink:href="#a"/><use xlink:href="#b" x="3.996" y="13.001"/><use xlink:href="#1" y="2.171"/><use xlink:href="#3" y="4.342"/><use xlink:href="#4" y="6.513"/><use xlink:href="#1" y="10.855"/><text y="14.696" class="g">➜</text><text x="2.004" y="14.696" class="h">vi</text></svg><svg x="1260"><use xlink:href="#a"/><use xlink:href="#b" x="4.996" y="13.001"/><use xlink:href="#1" y="2.171"/><use xlink:href="#3" y="4.342"/><use xlink:href="#4" y="6.513"/><use xlink:href="#1" y="10.855"/><use xlink:href="#5" y="13.026"/></svg><svg x="1323"><use xlink:href="#a"/><use xlink:href="#b" x="5.996" y="13.001"/><use xlink:href="#1" y="2.171"/><use xlink:href="#3" y="4.342"/><use xlink:href="#4" y="6.513"/><use xlink:href="#1" y="10.855"/><use xlink:href="#5" y="13.026"/></svg><svg x="1386"><use xlink:href="#a"/><use xlink:href="#b" x="6.996" y="13.001"/><use xlink:href="#1" y="2.171"/><use xlink:href="#3" y="4.342"/><use xlink:href="#4" y="6.513"/><use xlink:href="#1" y="10.855"/><text y="14.696" class="g">➜</text><text x="2.004" y="14.696" class="h">vim</text><text x="6.012" y="14.696" class="j">m</text></svg><svg x="1449"><use xlink:href="#a"/><use xlink:href="#b" x="7.996" y="13.001"/><use xlink:href="#1" y="2.171"/><use xlink:href="#3" y="4.342"/><use xlink:href="#4" y="6.513"/><use xlink:href="#1" y="10.855"/><text y="14.696" class="g">➜</text><text x="2.004" y="14.696" class="h">vim</text><text x="6.012" y="14.696" class="j">ma</text></svg><svg x="1512"><use xlink:href="#a"/><use xlink:href="#b" x="8.996" y="13.001"/><use xlink:href="#1" y="2.171"/><use xlink:href="#3" y="4.342"/><use xlink:href="#4" y="6.513"/><use xlink:href="#1" y="10.855"/><text y="14.696" class="g">➜</text><text x="2.004" y="14.696" class="h">vim</text><text x="6.012" y="14.696" class="j">mai</text></svg><svg x="1575"><use xlink:href="#a"/><use xlink:href="#b" x="9.996" y="13.001"/><use xlink:href="#1" y="2.171"/><use xlink:href="#3" y="4.342"/><use xlink:href="#4" y="6.513"/><use xlink:href="#1" y="10.855"/><text y="14.696" class="g">➜</text><text x="2.004" y="14.696" class="h">vim</text><text x="6.012" y="14.696" class="j">main</text></svg><svg x="1638"><use xlink:href="#a"/><use xlink:href="#b" x="12.996" y="13.001"/><use xlink:href="#1" y="2.171"/><use xlink:href="#3" y="4.342"/><use xlink:href="#4" y="6.513"/><use xlink:href="#1" y="10.855"/><use xlink:href="#6" y="13.026"/></svg><svg x="1701"><use xlink:href="#a"/><use xlink:href="#b" x="11.996" y="13.001"/><use xlink:href="#1" y="2.171"/><use xlink:href="#3" y="4.342"/><use xlink:href="#4" y="6.513"/><use xlink:href="#1" y="10.855"/><use xlink:href="#6" y="13.026"/></svg><svg x="1764"><use xlink:href="#a"/><use xlink:href="#b" x="11.996" y="13.001"/><use xlink:href="#1" y="2.171"/><use xlink:href="#3" y="4.342"/><use xlink:href="#4" y="6.513"/><use xlink:href="#1" y="10.855"/><use xlink:href="#6" y="13.026"/></svg><svg x="1827"><use xlink:href="#a"/><use xlink:href="#b" x="-.004" y="15.172"/><use xlink:href="#1" y="2.171"/><use xlink:href="#3" y="4.342"/><use xlink:href="#4" y="6.513"/><use xlink:href="#1" y="10.855"/><use xlink:href="#6" y="13.026"/></svg><svg x="1890"><use xlink:href="#a"/><use xlink:href="#b" x="-.004" y="15.172"/><use xlink:href="#1" y="2.171"/><use xlink:href="#3" y="4.342"/><use xlink:href="#4" y="6.513"/><use xlink:href="#1" y="10.855"/><use xlink:href="#6" y="13.026"/></svg><svg x="1953"><use xlink:href="#a"/><use xlink:href="#b" x="-.004"/></svg><svg x="2016"><use xlink:href="#a"/><use xlink:href="#7" y="67.301"/></svg><svg x="2079"><use xlink:href="#a"/><use xlink:href="#7" y="67.301"/></svg><svg x="2142"><use xlink:href="#a"/><use xlink:href="#8"/><use xlink:href="#9" y="4.342"/><use xlink:href="#10" y="6.513"/><use xlink:href="#11" y="8.684"/><use xlink:href="#12" y="10.855"/><use xlink:href="#13" y="13.026"/><use xlink:href="#13" y="15.197"/><use xlink:href="#13" y="17.368"/><use xlink:href="#13" y="19.539"/><use xlink:href="#13" y="21.71"/><use xlink:href="#13" y="23.881"/><use xlink:href="#13" y="26.052"/><use xlink:href="#13" y="28.223"/><use xlink:href="#13" y="30.394"/><use xlink:href="#13" y="32.565"/><use xlink:href="#13" y="34.736"/><use xlink:href="#13" y="36.907"/><use xlink:href="#13" y="39.078"/><use xlink:href="#7" y="67.301"/></svg><svg x="2205"><use xlink:href="#a"/><use xlink:href="#b" x="34.996" y="8.659"/><use xlink:href="#8"/><use xlink:href="#9" y="4.342"/><use xlink:href="#10" y="6.513"/><use xlink:href="#11" y="8.684"/><use xlink:href="#12" y="10.855"/><use xlink:href="#13" y="13.026"/><use xlink:href="#13" y="15.197"/><use xlink:href="#13" y="17.368"/><use xlink:href="#13" y="19.539"/><use xlink:href="#13" y="21.71"/><use xlink:href="#13" y="23.881"/><use xlink:href="#13" y="26.052"/><use xlink:href="#13" y="28.223"/><use xlink:href="#13" y="30.394"/><use xlink:href="#13" y="32.565"/><use xlink:href="#13" y="34.736"/><use xlink:href="#13" y="36.907"/><use xlink:href="#13" y="39.078"/><use xlink:href="#13" y="41.249"/><use xlink:href="#13" y="43.42"/><use xlink:href="#13" y="45.591"/><use xlink:href="#13" y="47.762"/><use xlink:href="#13" y="49.933"/><use xlink:href="#13" y="52.104"/><use xlink:href="#13" y="54.275"/><use xlink:href="#13" y="56.446"/><use xlink:href="#13" y="58.617"/><use xlink:href="#13" y="60.788"/><use xlink:href="#13" y="62.959"/><use xlink:href="#13" y="65.13"/><use xlink:href="#14" y="67.301"/></svg><svg x="2268"><use xlink:href="#a"/><use xlink:href="#b" x="34.996" y="8.659"/><use xlink:href="#8"/><use xlink:href="#9" y="4.342"/><use xlink:href="#10" y="6.513"/><use xlink:href="#11" y="8.684"/><use xlink:href="#12" y="10.855"/><use xlink:href="#13" y="13.026"/><use xlink:href="#13" y="15.197"/><use xlink:href="#13" y="17.368"/><use xlink:href="#13" y="19.539"/><use xlink:href="#13" y="21.71"/><use xlink:href="#13" y="23.881"/><use xlink:href="#13" y="26.052"/><use xlink:href="#13" y="28.223"/><use xlink:href="#13" y="30.394"/><use xlink:href="#13" y="32.565"/><use xlink:href="#13" y="34.736"/><use xlink:href="#13" y="36.907"/><use xlink:href="#13" y="39.078"/><use xlink:href="#13" y="41.249"/><use xlink:href="#13" y="43.42"/><use xlink:href="#13" y="45.591"/><use xlink:href="#13" y="47.762"/><use xlink:href="#13" y="49.933"/><use xlink:href="#13" y="52.104"/><use xlink:href="#13" y="54.275"/><use xlink:href="#13" y="56.446"/><use xlink:href="#13" y="58.617"/><use xlink:href="#13" y="60.788"/><use xlink:href="#13" y="62.959"/><use xlink:href="#13" y="65.13"/><use xlink:href="#14" y="67.301"/></svg><svg x="2331"><use xlink:href="#a"/><use xlink:href="#15"/><use xlink:href="#9" y="4.342"/><use xlink:href="#10" y="6.513"/><use xlink:href="#16" y="8.684"/><use xlink:href="#12" y="10.855"/><use xlink:href="#13" y="13.026"/><use xlink:href="#13" y="15.197"/><use xlink:href="#13" y="17.368"/><use xlink:href="#13" y="19.539"/><use xlink:href="#13" y="21.71"/><use xlink:href="#13" y="23.881"/><use xlink:href="#13" y="26.052"/><use xlink:href="#13" y="28.223"/><use xlink:href="#13" y="30.394"/><use xlink:href="#13" y="32.565"/><use xlink:href="#13" y="34.736"/><use xlink:href="#13" y="36.907"/></svg><svg x="2394"><use xlink:href="#a"/><use xlink:href="#b" x="34.996" y="8.659"/><use xlink:href="#15"/><use xlink:href="#9" y="4.342"/><use xlink:href="#10" y="6.513"/><use xlink:href="#16" y="8.684"/><use xlink:href="#12" y="10.855"/><use xlink:href="#13" y="13.026"/><use xlink:href="#13" y="15.197"/><use xlink:href="#13" y="17.368"/><use xlink:href="#13" y="19.539"/><use xlink:href="#13" y="21.71"/><use xlink:href="#13" y="23.881"/><use xlink:href="#13" y="26.052"/><use xlink:href="#13" y="28.223"/><use xlink:href="#13" y="30.394"/><use xlink:href="#13" y="32.565"/><use xlink:href="#13" y="34.736"/><use xlink:href="#13" y="36.907"/><use xlink:href="#13" y="39.078"/><use xlink:href="#13" y="41.249"/><use xlink:href="#13" y="43.42"/><use xlink:href="#13" y="45.591"/><use xlink:href="#13" y="47.762"/><use xlink:href="#13" y="49.933"/><use xlink:href="#13" y="52.104"/><use xlink:href="#13" y="54.275"/><use xlink:href="#13" y="56.446"/><use xlink:href="#13" y="58.617"/><use xlink:href="#13" y="60.788"/><use xlink:href="#13" y="62.959"/><use xlink:href="#13" y="65.13"/><use xlink:href="#14" y="67.301"/></svg><svg x="2457"><use xlink:href="#a"/><use xlink:href="#b" x=".996" y="67.276"/><use xlink:href="#15"/><use xlink:href="#9" y="4.342"/><use xlink:href="#10" y="6.513"/><use xlink:href="#16" y="8.684"/><use xlink:href="#12" y="10.855"/><use xlink:href="#13" y="13.026"/><use xlink:href="#13" y="15.197"/><use xlink:href="#13" y="17.368"/><use xlink:href="#13" y="19.539"/><use xlink:href="#13" y="21.71"/><use xlink:href="#13" y="23.881"/><use xlink:href="#13" y="26.052"/><use xlink:href="#13" y="28.223"/><use xlink:href="#13" y="30.394"/><use xlink:href="#13" y="32.565"/><use xlink:href="#13" y="34.736"/><use xlink:href="#13" y="36.907"/><use xlink:href="#13" y="39.078"/><use xlink:href="#13" y="41.249"/><use xlink:href="#13" y="43.42"/><use xlink:href="#13" y="45.591"/><use xlink:href="#13" y="47.762"/><use xlink:href="#13" y="49.933"/><use xlink:href="#13" y="52.104"/><use xlink:href="#13" y="54.275"/><use xlink:href="#13" y="56.446"/><use xlink:href="#13" y="58.617"/><use xlink:href="#13" y="60.788"/><use xlink:href="#13" y="62.959"/><use xlink:href="#13" y="65.13"/><text y="68.971" class="i">:</text></svg><svg x="2520"><use xlink:href="#a"/><use xlink:href="#b" x="1.996" y="67.276"/><use xlink:href="#15"/><use xlink:href="#9" y="4.342"/><use xlink:href="#10" y="6.513"/><use xlink:href="#16" y="8.684"/><use xlink:href="#12" y="10.855"/><use xlink:href="#13" y="13.026"/><use xlink:href="#13" y="15.197"/><use xlink:href="#13" y="17.368"/><use xlink:href="#13" y="19.539"/><use xlink:href="#13" y="21.71"/><use xlink:href="#13" y="23.881"/><use xlink:href="#13" y="26.052"/><use xlink:href="#13" y="28.223"/><use xlink:href="#13" y="30.394"/><use xlink:href="#13" y="32.565"/><use xlink:href="#13" y="34.736"/><use xlink:href="#13" y="36.907"/><use xlink:href="#13" y="39.078"/><use xlink:href="#13" y="41.249"/><use xlink:href="#13" y="43.42"/><use xlink:href="#13" y="45.591"/><use xlink:href="#13" y="47.762"/><use xlink:href="#13" y="49.933"/><use xlink:href="#13" y="52.104"/><use xlink:href="#13" y="54.275"/><use xlink:href="#13" y="56.446"/><use xlink:href="#13" y="58.617"/><use xlink:href="#13" y="60.788"/><use xlink:href="#13" y="62.959"/><use xlink:href="#13" y="65.13"/><use xlink:href="#17" y="67.301"/></svg><svg x="2583"><use xlink:href="#a"/><use xlink:href="#b" x="-.004" y="67.276"/><use xlink:href="#15"/><use xlink:href="#9" y="4.342"/><use xlink:href="#10" y="6.513"/><use xlink:href="#16" y="8.684"/><use xlink:href="#12" y="10.855"/><use xlink:href="#13" y="13.026"/><use xlink:href="#13" y="15.197"/><use xlink:href="#13" y="17.368"/><use xlink:href="#13" y="19.539"/><use xlink:href="#13" y="21.71"/><use xlink:href="#13" y="23.881"/><use xlink:href="#13" y="26.052"/><use xlink:href="#13" y="28.223"/><use xlink:href="#13" y="30.394"/><use xlink:href="#13" y="32.565"/><use xlink:href="#13" y="34.736"/><use xlink:href="#13" y="36.907"/><use xlink:href="#13" y="39.078"/><use xlink:href="#13" y="41.249"/><use xlink:href="#13" y="43.42"/><use xlink:href="#13" y="45.591"/><use xlink:href="#13" y="47.762"/><use xlink:href="#13" y="49.933"/><use xlink:href="#13" y="52.104"/><use xlink:href="#13" y="54.275"/><use xlink:href="#13" y="56.446"/><use xlink:href="#13" y="58.617"/><use xlink:href="#13" y="60.788"/><use xlink:href="#13" y="62.959"/><use xlink:href="#13" y="65.13"/><use xlink:href="#17" y="67.301"/></svg><svg x="2646"><use xlink:href="#a"/><use xlink:href="#b" x="-.004" y="15.172"/><use xlink:href="#1" y="2.171"/><use xlink:href="#3" y="4.342"/><use xlink:href="#4" y="6.513"/><use xlink:href="#1" y="10.855"/><use xlink:href="#6" y="13.026"/></svg><svg x="2709"><use xlink:href="#a"/><use xlink:href="#b" x="-.004" y="15.172"/><use xlink:href="#1" y="2.171"/><use xlink:href="#3" y="4.342"/><use xlink:href="#4" y="6.513"/><use xlink:href="#1" y="10.855"/><use xlink:href="#6" y="13.026"/></svg><svg x="2772"><use xlink:href="#a"/><use xlink:href="#b" x="-.004" y="15.172"/><use xlink:href="#1" y="2.171"/><use xlink:href="#3" y="4.342"/><use xlink:href="#4" y="6.513"/><use xlink:href="#1" y="10.855"/><use xlink:href="#6" y="13.026"/></svg><svg x="2835"><use xlink:href="#a"/><use xlink:href="#b" x="1.996" y="19.514"/><use xlink:href="#1" y="2.171"/><use xlink:href="#3" y="4.342"/><use xlink:href="#4" y="6.513"/><use xlink:href="#1" y="10.855"/><use xlink:href="#6" y="13.026"/><use xlink:href="#18" y="17.368"/><use xlink:href="#2" y="19.539"/></svg><svg x="2898"><use xlink:href="#a"/><use xlink:href="#b" x="1.996" y="19.514"/><use xlink:href="#1" y="2.171"/><use xlink:href="#3" y="4.342"/><use xlink:href="#4" y="6.513"/><use xlink:href="#1" y="10.855"/><use xlink:href="#6" y="13.026"/><use xlink:href="#18" y="17.368"/><use xlink:href="#2" y="19.539"/></svg><svg x="2961"><use xlink:href="#a"/><use xlink:href="#b" x="1.996" y="19.514"/><use xlink:href="#1" y="2.171"/><use xlink:href="#3" y="4.342"/><use xlink:href="#4" y="6.513"/><use xlink:href="#1" y="10.855"/><use xlink:href="#6" y="13.026"/><use xlink:href="#18" y="17.368"/><use xlink:href="#2" y="19.539"/></svg><svg x="3024"><use xlink:href="#a"/><use xlink:href="#b" x="2.996" y="19.514"/><use xlink:href="#1" y="2.171"/><use xlink:href="#3" y="4.342"/><use xlink:href="#4" y="6.513"/><use xlink:href="#1" y="10.855"/><use xlink:href="#6" y="13.026"/><use xlink:href="#18" y="17.368"/><text y="21.209" class="g">➜</text><text x="2.004" y="21.209" class="h">g</text></svg><svg x="3087"><use xlink:href="#a"/><use xlink:href="#b" x="3.996" y="19.514"/><use xlink:href="#1" y="2.171"/><use xlink:href="#3" y="4.342"/><use xlink:href="#4" y="6.513"/><use xlink:href="#1" y="10.855"/><use xlink:href="#6" y="13.026"/><use xlink:href="#18" y="17.368"/><text y="21.209" class="g">➜</text><text x="2.004" y="21.209" class="h">gc</text></svg><svg x="3150"><use xlink:href="#a"/><use xlink:href="#b" x="4.996" y="19.514"/><use xlink:href="#1" y="2.171"/><use xlink:href="#3" y="4.342"/><use xlink:href="#4" y="6.513"/><use xlink:href="#1" y="10.855"/><use xlink:href="#6" y="13.026"/><use xlink:href="#18" y="17.368"/><use xlink:href="#19" y="19.539"/></svg><svg x="3213"><use xlink:href="#a"/><use xlink:href="#b" x="5.996" y="19.514"/><use xlink:href="#1" y="2.171"/><use xlink:href="#3" y="4.342"/><use xlink:href="#4" y="6.513"/><use xlink:href="#1" y="10.855"/><use xlink:href="#6" y="13.026"/><use xlink:href="#18" y="17.368"/><use xlink:href="#19" y="19.539"/></svg><svg x="3276"><use xlink:href="#a"/><use xlink:href="#b" x="6.996" y="19.514"/><use xlink:href="#1" y="2.171"/><use xlink:href="#3" y="4.342"/><use xlink:href="#4" y="6.513"/><use xlink:href="#1" y="10.855"/><use xlink:href="#6" y="13.026"/><use xlink:href="#18" y="17.368"/><text y="21.209" class="g">➜</text><text x="2.004" y="21.209" class="h">gcc</text><text x="6.012" y="21.209" class="r">*</text></svg><svg x="3339"><use xlink:href="#a"/><use xlink:href="#b" x="7.996" y="19.514"/><use xlink:href="#1" y="2.171"/><use xlink:href="#3" y="4.342"/><use xlink:href="#4" y="6.513"/><use xlink:href="#1" y="10.855"/><use xlink:href="#6" y="13.026"/><use xlink:href="#18" y="17.368"/><text y="21.209" class="g">➜</text><text x="2.004" y="21.209" class="h">gcc</text><text x="6.012" y="21.209" class="r">*.</text></svg><svg x="3402"><use xlink:href="#a"/><use xlink:href="#b" x="8.996" y="19.514"/><use xlink:href="#1" y="2.171"/><use xlink:href="#3" y="4.342"/><use xlink:href="#4" y="6.513"/><use xlink:href="#1" y="10.855"/><use xlink:href="#6" y="13.026"/><use xlink:href="#18" y="17.368"/><use xlink:href="#20" y="19.539"/></svg><svg x="3465"><use xlink:href="#a"/><use xlink:href="#b" x="9.996" y="19.514"/><use xlink:href="#1" y="2.171"/><use xlink:href="#3" y="4.342"/><use xlink:href="#4" y="6.513"/><use xlink:href="#1" y="10.855"/><use xlink:href="#6" y="13.026"/><use xlink:href="#18" y="17.368"/><use xlink:href="#20" y="19.539"/></svg><svg x="3528"><use xlink:href="#a"/><use xlink:href="#b" x="10.996" y="19.514"/><use xlink:href="#1" y="2.171"/><use xlink:href="#3" y="4.342"/><use xlink:href="#4" y="6.513"/><use xlink:href="#1" y="10.855"/><use xlink:href="#6" y="13.026"/><use xlink:href="#18" y="17.368"/><text y="21.209" class="g">➜</text><text x="2.004" y="21.209" class="h">gcc</text><text x="6.012" y="21.209" class="r">*.c</text><text x="10.02" y="21.209" class="i">-</text></svg><svg x="3591"><use xlink:href="#a"/><use xlink:href="#b" x="11.996" y="19.514"/><use xlink:href="#1" y="2.171"/><use xlink:href="#3" y="4.342"/><use xlink:href="#4" y="6.513"/><use xlink:href="#1" y="10.855"/><use xlink:href="#6" y="13.026"/><use xlink:href="#18" y="17.368"/><use xlink:href="#21" y="19.539"/></svg><svg x="3654"><use xlink:href="#a"/><use xlink:href="#b" x="12.996" y="19.514"/><use xlink:href="#1" y="2.171"/><use xlink:href="#3" y="4.342"/><use xlink:href="#4" y="6.513"/><use xlink:href="#1" y="10.855"/><use xlink:href="#6" y="13.026"/><use xlink:href="#18" y="17.368"/><use xlink:href="#21" y="19.539"/></svg><svg x="3717"><use xlink:href="#a"/><use xlink:href="#b" x="13.996" y="19.514"/><use xlink:href="#1" y="2.171"/><use xlink:href="#3" y="4.342"/><use xlink:href="#4" y="6.513"/><use xlink:href="#1" y="10.855"/><use xlink:href="#6" y="13.026"/><use xlink:href="#18" y="17.368"/><text y="21.209" class="g">➜</text><text x="2.004" y="21.209" class="h">gcc</text><text x="6.012" y="21.209" class="r">*.c</text><text x="10.02" y="21.209" class="i">-o</text><text x="13.026" y="21.209" class="i">r</text></svg><svg x="3780"><use xlink:href="#a"/><use xlink:href="#b" x="14.996" y="19.514"/><use xlink:href="#1" y="2.171"/><use xlink:href="#3" y="4.342"/><use xlink:href="#4" y="6.513"/><use xlink:href="#1" y="10.855"/><use xlink:href="#6" y="13.026"/><use xlink:href="#18" y="17.368"/><text y="21.209" class="g">➜</text><text x="2.004" y="21.209" class="h">gcc</text><text x="6.012" y="21.209" class="r">*.c</text><text x="10.02" y="21.209" class="i">-o</text><text x="13.026" y="21.209" class="i">ru</text></svg><svg x="3843"><use xlink:href="#a"/><use xlink:href="#b" x="15.996" y="19.514"/><use xlink:href="#1" y="2.171"/><use xlink:href="#3" y="4.342"/><use xlink:href="#4" y="6.513"/><use xlink:href="#1" y="10.855"/><use xlink:href="#6" y="13.026"/><use xlink:href="#18" y="17.368"/><text y="21.209" class="g">➜</text><text x="2.004" y="21.209" class="h">gcc</text><text x="6.012" y="21.209" class="r">*.c</text><text x="10.02" y="21.209" class="i">-o</text><text x="13.026" y="21.209" class="i">run</text></svg><svg x="3906"><use xlink:href="#a"/><use xlink:href="#b" x="16.996" y="19.514"/><use xlink:href="#1" y="2.171"/><use xlink:href="#3" y="4.342"/><use xlink:href="#4" y="6.513"/><use xlink:href="#1" y="10.855"/><use xlink:href="#6" y="13.026"/><use xlink:href="#18" y="17.368"/><text y="21.209" class="g">➜</text><text x="2.004" y="21.209" class="h">gcc</text><text x="6.012" y="21.209" class="r">*.c</text><text x="10.02" y="21.209" class="i">-o</text><text x="13.026" y="21.209" class="i">run_</text></svg><svg x="3969"><use xlink:href="#a"/><use xlink:href="#b" x="17.996" y="19.514"/><use xlink:href="#1" y="2.171"/><use xlink:href="#3" y="4.342"/><use xlink:href="#4" y="6.513"/><use xlink:href="#1" y="10.855"/><use xlink:href="#6" y="13.026"/><use xlink:href="#18" y="17.368"/><text y="21.209" class="g">➜</text><text x="2.004" y="21.209" class="h">gcc</text><text x="6.012" y="21.209" class="r">*.c</text><text x="10.02" y="21.209" class="i">-o</text><text x="13.026" y="21.209" class="i">run_t</text></svg><svg x="4032"><use xlink:href="#a"/><use xlink:href="#b" x="18.996" y="19.514"/><use xlink:href="#1" y="2.171"/><use xlink:href="#3" y="4.342"/><use xlink:href="#4" y="6.513"/><use xlink:href="#1" y="10.855"/><use xlink:href="#6" y="13.026"/><use xlink:href="#18" y="17.368"/><text y="21.209" class="g">➜</text><text x="2.004" y="21.209" class="h">gcc</text><text x="6.012" y="21.209" class="r">*.c</text><text x="10.02" y="21.209" class="i">-o</text><text x="13.026" y="21.209" class="i">run_te</text></svg><svg x="4095"><use xlink:href="#a"/><use xlink:href="#b" x="19.996" y="19.514"/><use xlink:href="#1" y="2.171"/><use xlink:href="#3" y="4.342"/><use xlink:href="#4" y="6.513"/><use xlink:href="#1" y="10.855"/><use xlink:href="#6" y="13.026"/><use xlink:href="#18" y="17.368"/><text y="21.209" class="g">➜</text><text x="2.004" y="21.209" class="h">gcc</text><text x="6.012" y="21.209" class="r">*.c</text><text x="10.02" y="21.209" class="i">-o</text><text x="13.026" y="21.209" class="i">run_tes</text></svg><svg x="4158"><use xlink:href="#a"/><use xlink:href="#b" x="20.996" y="19.514"/><use xlink:href="#1" y="2.171"/><use xlink:href="#3" y="4.342"/><use xlink:href="#4" y="6.513"/><use xlink:href="#1" y="10.855"/><use xlink:href="#6" y="13.026"/><use xlink:href="#18" y="17.368"/><text y="21.209" class="g">➜</text><text x="2.004" y="21.209" class="h">gcc</text><text x="6.012" y="21.209" class="r">*.c</text><text x="10.02" y="21.209" class="i">-o</text><text x="13.026" y="21.209" class="i">run_test</text></svg><svg x="4221"><use xlink:href="#a"/><use xlink:href="#b" x="21.996" y="19.514"/><use xlink:href="#1" y="2.171"/><use xlink:href="#3" y="4.342"/><use xlink:href="#4" y="6.513"/><use xlink:href="#1" y="10.855"/><use xlink:href="#6" y="13.026"/><use xlink:href="#18" y="17.368"/><use xlink:href="#22" y="19.539"/></svg><svg x="4284"><use xlink:href="#a"/><use xlink:href="#b" x="21.996" y="19.514"/><use xlink:href="#1" y="2.171"/><use xlink:href="#3" y="4.342"/><use xlink:href="#4" y="6.513"/><use xlink:href="#1" y="10.855"/><use xlink:href="#6" y="13.026"/><use xlink:href="#18" y="17.368"/><use xlink:href="#22" y="19.539"/></svg><svg x="4347"><use xlink:href="#a"/><use xlink:href="#b" x="-.004" y="21.685"/><use xlink:href="#1" y="2.171"/><use xlink:href="#3" y="4.342"/><use xlink:href="#4" y="6.513"/><use xlink:href="#1" y="10.855"/><use xlink:href="#6" y="13.026"/><use xlink:href="#18" y="17.368"/><use xlink:href="#22" y="19.539"/></svg><svg x="4410"><use xlink:href="#a"/><use xlink:href="#b" x="-.004" y="21.685"/><use xlink:href="#1" y="2.171"/><use xlink:href="#3" y="4.342"/><use xlink:href="#4" y="6.513"/><use xlink:href="#1" y="10.855"/><use xlink:href="#6" y="13.026"/><use xlink:href="#18" y="17.368"/><use xlink:href="#22" y="19.539"/></svg><svg x="4473"><use xlink:href="#a"/><use xlink:href="#b" x="-.004" y="21.685"/><use xlink:href="#1" y="2.171"/><use xlink:href="#3" y="4.342"/><use xlink:href="#4" y="6.513"/><use xlink:href="#1" y="10.855"/><use xlink:href="#6" y="13.026"/><use xlink:href="#18" y="17.368"/><use xlink:href="#22" y="19.539"/></svg><svg x="4536"><use xlink:href="#a"/><use xlink:href="#b" x="-.004" y="21.685"/><use xlink:href="#1" y="2.171"/><use xlink:href="#3" y="4.342"/><use xlink:href="#4" y="6.513"/><use xlink:href="#1" y="10.855"/><use xlink:href="#6" y="13.026"/><use xlink:href="#18" y="17.368"/><use xlink:href="#22" y="19.539"/></svg><svg x="4599"><use xlink:href="#a"/><use xlink:href="#b" x="1.996" y="26.027"/><use xlink:href="#1" y="2.171"/><use xlink:href="#3" y="4.342"/><use xlink:href="#4" y="6.513"/><use xlink:href="#1" y="10.855"/><use xlink:href="#6" y="13.026"/><use xlink:href="#18" y="17.368"/><use xlink:href="#22" y="19.539"/><use xlink:href="#1" y="23.881"/><use xlink:href="#2" y="26.052"/></svg><svg x="4662"><use xlink:href="#a"/><use xlink:href="#b" x="1.996" y="26.027"/><use xlink:href="#1" y="2.171"/><use xlink:href="#3" y="4.342"/><use xlink:href="#4" y="6.513"/><use xlink:href="#1" y="10.855"/><use xlink:href="#6" y="13.026"/><use xlink:href="#18" y="17.368"/><use xlink:href="#22" y="19.539"/><use xlink:href="#1" y="23.881"/><use xlink:href="#2" y="26.052"/></svg><svg x="4725"><use xlink:href="#a"/><use xlink:href="#b" x="1.996" y="26.027"/><use xlink:href="#1" y="2.171"/><use xlink:href="#3" y="4.342"/><use xlink:href="#4" y="6.513"/><use xlink:href="#1" y="10.855"/><use xlink:href="#6" y="13.026"/><use xlink:href="#18" y="17.368"/><use xlink:href="#22" y="19.539"/><use xlink:href="#1" y="23.881"/><use xlink:href="#2" y="26.052"/></svg><svg x="4788"><use xlink:href="#a"/><use xlink:href="#b" x="2.996" y="26.027"/><use xlink:href="#1" y="2.171"/><use xlink:href="#3" y="4.342"/><use xlink:href="#4" y="6.513"/><use xlink:href="#1" y="10.855"/><use xlink:href="#6" y="13.026"/><use xlink:href="#18" y="17.368"/><use xlink:href="#22" y="19.539"/><use xlink:href="#1" y="23.881"/><text y="27.722" class="g">➜</text><text x="2.004" y="27.722" class="h">.</text></svg><svg x="4851"><use xlink:href="#a"/><use xlink:href="#b" x="3.996" y="26.027"/><use xlink:href="#1" y="2.171"/><use xlink:href="#3" y="4.342"/><use xlink:href="#4" y="6.513"/><use xlink:href="#1" y="10.855"/><use xlink:href="#6" y="13.026"/><use xlink:href="#18" y="17.368"/><use xlink:href="#22" y="19.539"/><use xlink:href="#1" y="23.881"/><text y="27.722" class="g">➜</text><text x="2.004" y="27.722" class="j">./</text></svg><svg x="4914"><use xlink:href="#a"/><use xlink:href="#b" x="4.996" y="26.027"/><use xlink:href="#1" y="2.171"/><use xlink:href="#3" y="4.342"/><use xlink:href="#4" y="6.513"/><use xlink:href="#1" y="10.855"/><use xlink:href="#6" y="13.026"/><use xlink:href="#18" y="17.368"/><use xlink:href="#22" y="19.539"/><use xlink:href="#1" y="23.881"/><text y="27.722" class="g">➜</text><text x="2.004" y="27.722" class="j">./r</text></svg><svg x="4977"><use xlink:href="#a"/><use xlink:href="#b" x="5.996" y="26.027"/><use xlink:href="#1" y="2.171"/><use xlink:href="#3" y="4.342"/><use xlink:href="#4" y="6.513"/><use xlink:href="#1" y="10.855"/><use xlink:href="#6" y="13.026"/><use xlink:href="#18" y="17.368"/><use xlink:href="#22" y="19.539"/><use xlink:href="#1" y="23.881"/><text y="27.722" class="g">➜</text><text x="2.004" y="27.722" class="j">./ru</text></svg><svg x="5040"><use xlink:href="#a"/><use xlink:href="#b" x="6.996" y="26.027"/><use xlink:href="#1" y="2.171"/><use xlink:href="#3" y="4.342"/><use xlink:href="#4" y="6.513"/><use xlink:href="#1" y="10.855"/><use xlink:href="#6" y="13.026"/><use xlink:href="#18" y="17.368"/><use xlink:href="#22" y="19.539"/><use xlink:href="#1" y="23.881"/><text y="27.722" class="g">➜</text><text x="2.004" y="27.722" class="j">./run</text></svg><svg x="5103"><use xlink:href="#a"/><use xlink:href="#b" x="13.996" y="26.027"/><use xlink:href="#1" y="2.171"/><use xlink:href="#3" y="4.342"/><use xlink:href="#4" y="6.513"/><use xlink:href="#1" y="10.855"/><use xlink:href="#6" y="13.026"/><use xlink:href="#18" y="17.368"/><use xlink:href="#22" y="19.539"/><use xlink:href="#1" y="23.881"/><use xlink:href="#23" y="26.052"/></svg><svg x="5166"><use xlink:href="#a"/><use xlink:href="#b" x="12.996" y="26.027"/><use xlink:href="#1" y="2.171"/><use xlink:href="#3" y="4.342"/><use xlink:href="#4" y="6.513"/><use xlink:href="#1" y="10.855"/><use xlink:href="#6" y="13.026"/><use xlink:href="#18" y="17.368"/><use xlink:href="#22" y="19.539"/><use xlink:href="#1" y="23.881"/><use xlink:href="#23" y="26.052"/></svg><svg x="5229"><use xlink:href="#a"/><use xlink:href="#b" x="12.996" y="26.027"/><use xlink:href="#1" y="2.171"/><use xlink:href="#3" y="4.342"/><use xlink:href="#4" y="6.513"/><use xlink:href="#1" y="10.855"/><use xlink:href="#6" y="13.026"/><use xlink:href="#18" y="17.368"/><use xlink:href="#22" y="19.539"/><use xlink:href="#1" y="23.881"/><use xlink:href="#23" y="26.052"/></svg><svg x="5292"><use xlink:href="#a"/><use xlink:href="#b" x="-.004" y="28.198"/><use xlink:href="#1" y="2.171"/><use xlink:href="#3" y="4.342"/><use xlink:href="#4" y="6.513"/><use xlink:href="#1" y="10.855"/><use xlink:href="#6" y="13.026"/><use xlink:href="#18" y="17.368"/><use xlink:href="#22" y="19.539"/><use xlink:href="#1" y="23.881"/><use xlink:href="#23" y="26.052"/></svg><svg x="5355"><use xlink:href="#a"/><use xlink:href="#b" x="-.004" y="28.198"/><use xlink:href="#1" y="2.171"/><use xlink:href="#3" y="4.342"/><use xlink:href="#4" y="6.513"/><use xlink:href="#1" y="10.855"/><use xlink:href="#6" y="13.026"/><use xlink:href="#18" y="17.368"/><use xlink:href="#22" y="19.539"/><use xlink:href="#1" y="23.881"/><use xlink:href="#23" y="26.052"/></svg><svg x="5418"><use xlink:href="#a"/><use xlink:href="#b" x="-.004" y="32.54"/><use xlink:href="#1" y="2.171"/><use xlink:href="#3" y="4.342"/><use xlink:href="#4" y="6.513"/><use xlink:href="#1" y="10.855"/><use xlink:href="#6" y="13.026"/><use xlink:href="#18" y="17.368"/><use xlink:href="#22" y="19.539"/><use xlink:href="#1" y="23.881"/><use xlink:href="#23" y="26.052"/><use xlink:href="#24" y="30.394"/></svg><svg x="5481"><use xlink:href="#a"/><use xlink:href="#b" x="-.004" y="54.25"/><use xlink:href="#1" y="2.171"/><use xlink:href="#3" y="4.342"/><use xlink:href="#4" y="6.513"/><use xlink:href="#1" y="10.855"/><use xlink:href="#6" y="13.026"/><use xlink:href="#18" y="17.368"/><use xlink:href="#22" y="19.539"/><use xlink:href="#1" y="23.881"/><use xlink:href="#23" y="26.052"/><use xlink:href="#24" y="30.394"/><use xlink:href="#25" y="34.736"/><use xlink:href="#26" y="39.078"/><use xlink:href="#27" y="43.42"/><use xlink:href="#28" y="47.762"/><use xlink:href="#29" y="52.104"/></svg><svg x="5544"><use xlink:href="#a"/><use xlink:href="#b" x="-.004" y="67.276"/><use xlink:href="#23"/><use xlink:href="#24" y="4.342"/><use xlink:href="#25" y="8.684"/><use xlink:href="#26" y="13.026"/><use xlink:href="#27" y="17.368"/><use xlink:href="#28" y="21.71"/><use xlink:href="#29" y="26.052"/><use xlink:href="#30" y="30.394"/><use xlink:href="#31" y="32.565"/><use xlink:href="#32" y="34.736"/><use xlink:href="#33" y="36.907"/><use xlink:href="#34" y="41.249"/><use xlink:href="#35" y="43.42"/><use xlink:href="#36" y="45.591"/><use xlink:href="#37" y="47.762"/><use xlink:href="#38" y="52.104"/><use xlink:href="#39" y="56.446"/><use xlink:href="#40" y="58.617"/><use xlink:href="#41" y="62.959"/><use xlink:href="#42" y="65.13"/></svg><svg x="5607"><use xlink:href="#a"/><use xlink:href="#b" x="-.004" y="67.276"/><use xlink:href="#23"/><use xlink:href="#24" y="4.342"/><use xlink:href="#25" y="8.684"/><use xlink:href="#26" y="13.026"/><use xlink:href="#27" y="17.368"/><use xlink:href="#28" y="21.71"/><use xlink:href="#29" y="26.052"/><use xlink:href="#30" y="30.394"/><use xlink:href="#31" y="32.565"/><use xlink:href="#32" y="34.736"/><use xlink:href="#33" y="36.907"/><use xlink:href="#34" y="41.249"/><use xlink:href="#35" y="43.42"/><use xlink:href="#36" y="45.591"/><use xlink:href="#37" y="47.762"/><use xlink:href="#38" y="52.104"/><use xlink:href="#39" y="56.446"/><use xlink:href="#40" y="58.617"/><use xlink:href="#41" y="62.959"/><use xlink:href="#42" y="65.13"/></svg><svg x="5670"><use xlink:href="#a"/><use xlink:href="#b" x="-.004" y="67.276"/><use xlink:href="#23"/><use xlink:href="#24" y="4.342"/><use xlink:href="#25" y="8.684"/><use xlink:href="#26" y="13.026"/><use xlink:href="#27" y="17.368"/><use xlink:href="#28" y="21.71"/><use xlink:href="#29" y="26.052"/><use xlink:href="#30" y="30.394"/><use xlink:href="#31" y="32.565"/><use xlink:href="#32" y="34.736"/><use xlink:href="#33" y="36.907"/><use xlink:href="#34" y="41.249"/><use xlink:href="#35" y="43.42"/><use xlink:href="#36" y="45.591"/><use xlink:href="#37" y="47.762"/><use xlink:href="#38" y="52.104"/><use xlink:href="#39" y="56.446"/><use xlink:href="#40" y="58.617"/><use xlink:href="#41" y="62.959"/><use xlink:href="#42" y="65.13"/></svg><svg x="5733"><use xlink:href="#a"/><use xlink:href="#b" x="-.004" y="67.276"/><use xlink:href="#23"/><use xlink:href="#24" y="4.342"/><use xlink:href="#25" y="8.684"/><use xlink:href="#26" y="13.026"/><use xlink:href="#27" y="17.368"/><use xlink:href="#28" y="21.71"/><use xlink:href="#29" y="26.052"/><use xlink:href="#30" y="30.394"/><use xlink:href="#31" y="32.565"/><use xlink:href="#32" y="34.736"/><use xlink:href="#33" y="36.907"/><use xlink:href="#34" y="41.249"/><use xlink:href="#35" y="43.42"/><use xlink:href="#36" y="45.591"/><use xlink:href="#37" y="47.762"/><use xlink:href="#38" y="52.104"/><use xlink:href="#39" y="56.446"/><use xlink:href="#40" y="58.617"/><use xlink:href="#41" y="62.959"/><use xlink:href="#42" y="65.13"/></svg><svg x="5796"><use xlink:href="#a"/><use xlink:href="#b" x="1.996" y="67.276"/><use xlink:href="#24"/><use xlink:href="#25" y="4.342"/><use xlink:href="#26" y="8.684"/><use xlink:href="#27" y="13.026"/><use xlink:href="#28" y="17.368"/><use xlink:href="#29" y="21.71"/><use xlink:href="#30" y="26.052"/><use xlink:href="#31" y="28.223"/><use xlink:href="#32" y="30.394"/><use xlink:href="#33" y="32.565"/><use xlink:href="#34" y="36.907"/><use xlink:href="#35" y="39.078"/><use xlink:href="#36" y="41.249"/><use xlink:href="#37" y="43.42"/><use xlink:href="#38" y="47.762"/><use xlink:href="#39" y="52.104"/><use xlink:href="#40" y="54.275"/><use xlink:href="#41" y="58.617"/><use xlink:href="#42" y="60.788"/><use xlink:href="#1" y="65.13"/><use xlink:href="#43" y="67.301"/></svg><svg x="5859"><use xlink:href="#a"/><use xlink:href="#b" x="1.996" y="67.276"/><use xlink:href="#24"/><use xlink:href="#25" y="4.342"/><use xlink:href="#26" y="8.684"/><use xlink:href="#27" y="13.026"/><use xlink:href="#28" y="17.368"/><use xlink:href="#29" y="21.71"/><use xlink:href="#30" y="26.052"/><use xlink:href="#31" y="28.223"/><use xlink:href="#32" y="30.394"/><use xlink:href="#33" y="32.565"/><use xlink:href="#34" y="36.907"/><use xlink:href="#35" y="39.078"/><use xlink:href="#36" y="41.249"/><use xlink:href="#37" y="43.42"/><use xlink:href="#38" y="47.762"/><use xlink:href="#39" y="52.104"/><use xlink:href="#40" y="54.275"/><use xlink:href="#41" y="58.617"/><use xlink:href="#42" y="60.788"/><use xlink:href="#1" y="65.13"/><use xlink:href="#43" y="67.301"/></svg><svg x="5922"><use xlink:href="#a"/><use xlink:href="#b" x="1.996" y="67.276"/><use xlink:href="#24"/><use xlink:href="#25" y="4.342"/><use xlink:href="#26" y="8.684"/><use xlink:href="#27" y="13.026"/><use xlink:href="#28" y="17.368"/><use xlink:href="#29" y="21.71"/><use xlink:href="#30" y="26.052"/><use xlink:href="#31" y="28.223"/><use xlink:href="#32" y="30.394"/><use xlink:href="#33" y="32.565"/><use xlink:href="#34" y="36.907"/><use xlink:href="#35" y="39.078"/><use xlink:href="#36" y="41.249"/><use xlink:href="#37" y="43.42"/><use xlink:href="#38" y="47.762"/><use xlink:href="#39" y="52.104"/><use xlink:href="#40" y="54.275"/><use xlink:href="#41" y="58.617"/><use xlink:href="#42" y="60.788"/><use xlink:href="#1" y="65.13"/><use xlink:href="#43" y="67.301"/></svg><svg x="5985"><use xlink:href="#a"/><use xlink:href="#b" x="-.004" y="67.276"/><use xlink:href="#25" y="2.171"/><use xlink:href="#26" y="6.513"/><use xlink:href="#27" y="10.855"/><use xlink:href="#28" y="15.197"/><use xlink:href="#29" y="19.539"/><use xlink:href="#30" y="23.881"/><use xlink:href="#31" y="26.052"/><use xlink:href="#32" y="28.223"/><use xlink:href="#33" y="30.394"/><use xlink:href="#34" y="34.736"/><use xlink:href="#35" y="36.907"/><use xlink:href="#36" y="39.078"/><use xlink:href="#37" y="41.249"/><use xlink:href="#38" y="45.591"/><use xlink:href="#39" y="49.933"/><use xlink:href="#40" y="52.104"/><use xlink:href="#41" y="56.446"/><use xlink:href="#42" y="58.617"/><use xlink:href="#1" y="62.959"/><use xlink:href="#43" y="65.13"/></svg></svg></g></g></svg></svg>